<svg width="24" height="24" viewBox="0 0 24 24" fill="none" xmlns="http://www.w3.org/2000/svg">
<path d="M15.3487 9.29019C15.7407 8.90116 16.3739 8.90359 16.7629 9.29561C17.1519 9.68763 17.1495 10.3208 16.7575 10.7098L11.1237 16.3006C9.94786 17.4675 8.04874 17.4606 6.88157 16.2851L1.89397 11.2626C0.959059 10.321 0.753742 8.87712 1.38912 7.71225L3.10666 4.56344C3.63236 3.59966 4.64251 3 5.74034 3H18.3658C19.4636 3 20.4738 3.59966 20.9995 4.56344L22.7144 7.7074C23.3516 8.87572 23.143 10.3242 22.202 11.2653L12.7602 20.7071C12.3697 21.0976 11.7365 21.0976 11.346 20.7071C10.9554 20.3166 10.9554 19.6834 11.346 19.2929L20.7878 9.85106C21.1015 9.53738 21.171 9.05454 20.9586 8.6651L19.2437 5.52115C19.0685 5.19989 18.7318 5 18.3658 5H5.74034C5.3744 5 5.03768 5.19989 4.86245 5.52115L3.14491 8.66996C2.93312 9.05825 3.00156 9.53954 3.31315 9.85336L8.30075 14.8759C8.68982 15.2677 9.32286 15.27 9.71484 14.881L15.3487 9.29019Z" fill="#FA961E"/>
</svg>
